<mxfile host="app.diagrams.net" modified="2020-12-17T11:29:51.728Z" agent="5.0 (Windows NT 10.0; Win64; x64) AppleWebKit/537.36 (KHTML, like Gecko) Chrome/87.0.4280.88 Safari/537.36" etag="FcnlcZ3HbEo6s3F9jTME" version="14.0.4" type="github" pages="2">
  <diagram id="AhnJQDA81nmAYEL4HSuj" name="统计收益类关系图">
    <mxGraphModel dx="1022" dy="475" grid="1" gridSize="10" guides="1" tooltips="1" connect="1" arrows="1" fold="1" page="1" pageScale="1" pageWidth="827" pageHeight="1169" math="0" shadow="0">
      <root>
        <mxCell id="0" />
        <mxCell id="1" parent="0" />
      </root>
    </mxGraphModel>
  </diagram>
  <diagram id="lpoweRDjZlO5eUTYa2I4" name="修改密码类关系图">
    <mxGraphModel dx="1849" dy="475" grid="1" gridSize="10" guides="1" tooltips="1" connect="1" arrows="1" fold="1" page="1" pageScale="1" pageWidth="827" pageHeight="1169" math="0" shadow="0">
      <root>
        <mxCell id="X2l0_PLZrgsqV0xBoPfv-0" />
        <mxCell id="X2l0_PLZrgsqV0xBoPfv-1" parent="X2l0_PLZrgsqV0xBoPfv-0" />
        <mxCell id="X2l0_PLZrgsqV0xBoPfv-6" value="统计收益控制类" style="swimlane;fontStyle=1;align=center;verticalAlign=top;childLayout=stackLayout;horizontal=1;startSize=26;horizontalStack=0;resizeParent=1;resizeParentMax=0;resizeLast=0;collapsible=1;marginBottom=0;" vertex="1" parent="X2l0_PLZrgsqV0xBoPfv-1">
          <mxGeometry x="-90" y="260" width="290" height="94" as="geometry" />
        </mxCell>
        <mxCell id="X2l0_PLZrgsqV0xBoPfv-8" value="" style="line;strokeWidth=1;fillColor=none;align=left;verticalAlign=middle;spacingTop=-1;spacingLeft=3;spacingRight=3;rotatable=0;labelPosition=right;points=[];portConstraint=eastwest;" vertex="1" parent="X2l0_PLZrgsqV0xBoPfv-6">
          <mxGeometry y="26" width="290" height="8" as="geometry" />
        </mxCell>
        <mxCell id="X2l0_PLZrgsqV0xBoPfv-9" value="showOrderDetails(订单id)；&#xa;showDesignatedDatesOrders(startDate,endDate)；" style="text;strokeColor=none;fillColor=none;align=left;verticalAlign=top;spacingLeft=4;spacingRight=4;overflow=hidden;rotatable=0;points=[[0,0.5],[1,0.5]];portConstraint=eastwest;" vertex="1" parent="X2l0_PLZrgsqV0xBoPfv-6">
          <mxGeometry y="34" width="290" height="60" as="geometry" />
        </mxCell>
        <mxCell id="X2l0_PLZrgsqV0xBoPfv-22" value="订单类" style="swimlane;fontStyle=1;align=center;verticalAlign=top;childLayout=stackLayout;horizontal=1;startSize=26;horizontalStack=0;resizeParent=1;resizeParentMax=0;resizeLast=0;collapsible=1;marginBottom=0;" vertex="1" parent="X2l0_PLZrgsqV0xBoPfv-1">
          <mxGeometry x="560" y="260" width="350" height="100" as="geometry" />
        </mxCell>
        <mxCell id="X2l0_PLZrgsqV0xBoPfv-24" value="" style="line;strokeWidth=1;fillColor=none;align=left;verticalAlign=middle;spacingTop=-1;spacingLeft=3;spacingRight=3;rotatable=0;labelPosition=right;points=[];portConstraint=eastwest;" vertex="1" parent="X2l0_PLZrgsqV0xBoPfv-22">
          <mxGeometry y="26" width="350" height="8" as="geometry" />
        </mxCell>
        <mxCell id="X2l0_PLZrgsqV0xBoPfv-25" value="getOrderDetails(订单id): Order&#xa;getDesignatedDatesOrders(startDate,endDate):List&lt;Order&gt;" style="text;strokeColor=none;fillColor=none;align=left;verticalAlign=top;spacingLeft=4;spacingRight=4;overflow=hidden;rotatable=0;points=[[0,0.5],[1,0.5]];portConstraint=eastwest;" vertex="1" parent="X2l0_PLZrgsqV0xBoPfv-22">
          <mxGeometry y="34" width="350" height="66" as="geometry" />
        </mxCell>
        <mxCell id="X2l0_PLZrgsqV0xBoPfv-29" value="getOrderDetails(订单id)；&lt;br&gt;&lt;span style=&quot;text-align: left&quot;&gt;getDesignatedDatesOrders(startDate,endDate)；&lt;/span&gt;" style="text;html=1;align=center;verticalAlign=middle;resizable=0;points=[];autosize=1;" vertex="1" parent="X2l0_PLZrgsqV0xBoPfv-1">
          <mxGeometry x="235" y="280" width="280" height="30" as="geometry" />
        </mxCell>
        <mxCell id="X2l0_PLZrgsqV0xBoPfv-31" value="" style="endArrow=classic;html=1;entryX=0;entryY=0.5;entryDx=0;entryDy=0;exitX=1;exitY=0.5;exitDx=0;exitDy=0;" edge="1" parent="X2l0_PLZrgsqV0xBoPfv-1" source="X2l0_PLZrgsqV0xBoPfv-9" target="X2l0_PLZrgsqV0xBoPfv-25">
          <mxGeometry width="50" height="50" relative="1" as="geometry">
            <mxPoint x="390" y="340" as="sourcePoint" />
            <mxPoint x="440" y="290" as="targetPoint" />
          </mxGeometry>
        </mxCell>
        <mxCell id="X2l0_PLZrgsqV0xBoPfv-32" value="1" style="edgeLabel;html=1;align=center;verticalAlign=middle;resizable=0;points=[];" vertex="1" connectable="0" parent="X2l0_PLZrgsqV0xBoPfv-31">
          <mxGeometry x="-0.7648" relative="1" as="geometry">
            <mxPoint as="offset" />
          </mxGeometry>
        </mxCell>
        <mxCell id="X2l0_PLZrgsqV0xBoPfv-33" value="0..n" style="edgeLabel;html=1;align=center;verticalAlign=middle;resizable=0;points=[];" vertex="1" connectable="0" parent="X2l0_PLZrgsqV0xBoPfv-31">
          <mxGeometry x="0.6629" y="1" relative="1" as="geometry">
            <mxPoint as="offset" />
          </mxGeometry>
        </mxCell>
      </root>
    </mxGraphModel>
  </diagram>
</mxfile>
